<svg width="311" height="113" viewBox="0 0 311 113" fill="none" xmlns="http://www.w3.org/2000/svg">
<path d="M193.433 78.6934C192.071 75.5886 195.477 72.5543 198.404 74.2654L203.771 77.4023C205.454 78.3862 207.579 78.1744 209.035 76.8777L213.677 72.7432C216.209 70.4881 220.147 72.7903 219.424 76.1029L218.099 82.1761C217.684 84.0808 218.542 86.0365 220.225 87.0203L225.591 90.1573C228.518 91.8683 227.546 96.3254 224.172 96.6617L217.987 97.2782C216.047 97.4715 214.452 98.892 214.036 100.797L212.711 106.87C211.988 110.183 207.449 110.635 206.087 107.53L203.589 101.838C202.806 100.053 200.962 98.975 199.022 99.1683L192.836 99.7848C189.463 100.121 187.63 95.9436 190.161 93.6885L194.803 89.554C196.259 88.2574 196.714 86.1708 195.931 84.3856L193.433 78.6934Z" stroke="#DBDADC"/>
<path d="M193.433 78.6934C192.071 75.5886 195.477 72.5543 198.404 74.2654L203.771 77.4023C205.454 78.3862 207.579 78.1744 209.035 76.8777L213.677 72.7432C216.209 70.4881 220.147 72.7903 219.424 76.1029L218.099 82.1761C217.684 84.0808 218.542 86.0365 220.225 87.0203L225.591 90.1573C228.518 91.8683 227.546 96.3254 224.172 96.6617L217.987 97.2782C216.047 97.4715 214.452 98.892 214.036 100.797L212.711 106.87C211.988 110.183 207.449 110.635 206.087 107.53L203.589 101.838C202.806 100.053 200.962 98.975 199.022 99.1683L192.836 99.7848C189.463 100.121 187.63 95.9436 190.161 93.6885L194.803 89.554C196.259 88.2574 196.714 86.1708 195.931 84.3856L193.433 78.6934Z" stroke="#943EB2"/>
<path d="M28.6103 21.9323C28.5477 18.5424 32.8595 17.0527 34.9028 19.7584L38.6488 24.719C39.8237 26.2747 41.8667 26.8971 43.7093 26.2605L49.5847 24.2307C52.7894 23.1235 55.5385 26.764 53.5967 29.5434L50.0365 34.639C48.9199 36.2371 48.9594 38.3724 50.1343 39.9281L53.8803 44.8887C55.9236 47.5944 53.3108 51.334 50.0674 50.346L44.121 48.5347C42.2561 47.9666 40.2375 48.664 39.1209 50.2621L35.5608 55.3577C33.6189 58.1371 29.2549 56.8078 29.1923 53.4178L29.0774 47.2028C29.0414 45.2536 27.7543 43.5493 25.8894 42.9812L19.9431 41.1699C16.6997 40.182 16.6154 35.6208 19.82 34.5137L25.6954 32.4839C27.538 31.8473 28.7612 30.0966 28.7252 28.1474L28.6103 21.9323Z" stroke="#DBDADC"/>
<path d="M28.6103 21.9323C28.5477 18.5424 32.8595 17.0527 34.9028 19.7584L38.6488 24.719C39.8237 26.2747 41.8667 26.8971 43.7093 26.2605L49.5847 24.2307C52.7894 23.1235 55.5385 26.764 53.5967 29.5434L50.0365 34.639C48.9199 36.2371 48.9594 38.3724 50.1343 39.9281L53.8803 44.8887C55.9236 47.5944 53.3108 51.334 50.0674 50.346L44.121 48.5347C42.2561 47.9666 40.2375 48.664 39.1209 50.2621L35.5608 55.3577C33.6189 58.1371 29.2549 56.8078 29.1923 53.4178L29.0774 47.2028C29.0414 45.2536 27.7543 43.5493 25.8894 42.9812L19.9431 41.1699C16.6997 40.182 16.6154 35.6208 19.82 34.5137L25.6954 32.4839C27.538 31.8473 28.7612 30.0966 28.7252 28.1474L28.6103 21.9323Z" stroke="#CD3DFF"/>
<path d="M281.328 41.6372C284.023 39.5799 287.776 42.1733 286.805 45.4217L285.024 51.3774C284.466 53.2452 285.174 55.2602 286.777 56.3685L291.891 59.9022C294.681 61.8296 293.374 66.2004 289.985 66.2806L283.77 66.4277C281.821 66.4739 280.124 67.7697 279.565 69.6376L277.785 75.5932C276.814 78.8417 272.253 78.9497 271.129 75.7508L269.069 69.8861C268.423 68.0467 266.666 66.8326 264.717 66.8788L258.503 67.0259C255.113 67.1061 253.601 62.802 256.296 60.7448L261.237 56.9731C262.787 55.7902 263.398 53.744 262.752 51.9046L260.692 46.0399C259.568 42.841 263.195 40.073 265.984 42.0004L271.098 45.5341C272.702 46.6423 274.837 46.5918 276.386 45.4089L281.328 41.6372Z" stroke="#DBDADC"/>
<path d="M281.328 41.6372C284.023 39.5799 287.776 42.1733 286.805 45.4217L285.024 51.3774C284.466 53.2452 285.174 55.2602 286.777 56.3685L291.891 59.9022C294.681 61.8296 293.374 66.2004 289.985 66.2806L283.77 66.4277C281.821 66.4739 280.124 67.7697 279.565 69.6376L277.785 75.5932C276.814 78.8417 272.253 78.9497 271.129 75.7508L269.069 69.8861C268.423 68.0467 266.666 66.8326 264.717 66.8788L258.503 67.0259C255.113 67.1061 253.601 62.802 256.296 60.7448L261.237 56.9731C262.787 55.7902 263.398 53.744 262.752 51.9046L260.692 46.0399C259.568 42.841 263.195 40.073 265.984 42.0004L271.098 45.5341C272.702 46.6423 274.837 46.5918 276.386 45.4089L281.328 41.6372Z" stroke="#D1A4FF"/>
</svg>
